<svg id="visual" viewBox="0 0 1440 900" width="1440" height="900" xmlns="http://www.w3.org/2000/svg" xmlns:xlink="http://www.w3.org/1999/xlink" version="1.1"><rect x="0" y="0" width="1440" height="900" fill="#CCCCCC"></rect><path d="M0 643L34.3 662.3C68.7 681.7 137.3 720.3 205.8 740.5C274.3 760.7 342.7 762.3 411.2 765C479.7 767.7 548.3 771.3 617 758.3C685.7 745.3 754.3 715.7 823 687C891.7 658.3 960.3 630.7 1028.8 642.8C1097.3 655 1165.7 707 1234.2 717C1302.7 727 1371.3 695 1405.7 679L1440 663L1440 901L1405.7 901C1371.3 901 1302.7 901 1234.2 901C1165.7 901 1097.3 901 1028.8 901C960.3 901 891.7 901 823 901C754.3 901 685.7 901 617 901C548.3 901 479.7 901 411.2 901C342.7 901 274.3 901 205.8 901C137.3 901 68.7 901 34.3 901L0 901Z" fill="#FFFFFF" stroke-linecap="round" stroke-linejoin="miter"></path></svg>